<svg xmlns="http://www.w3.org/2000/svg" viewBox="0 0 24 24" fill="none" stroke="#22c55e" stroke-width="2" stroke-linecap="round" stroke-linejoin="round"><path d="M7 19H4.815a1.83 1.83 0 0 1-1.57-.881 1.785 1.785 0 0 1-.004-1.784L7.196 9.5"/><path d="M11 19h8.203a1.83 1.83 0 0 0 1.556-.89 1.784 1.784 0 0 0 0-1.775l-1.226-2.12"/><path d="m14 16-3 3 3 3"/><path d="M8.293 13.596 4.875 7.5l3.418-6.096a1.83 1.83 0 0 1 1.573-.882h2.468"/><path d="m9.5 5.5 2.5-4"/><path d="m7.5 8 3-1"/><path d="M16.293 13.596 12.875 7.5l.68-1.214"/><path d="m14 6 3 1"/></svg>